<svg width="64" height="64" viewBox="0 0 16 16" fill="none" xmlns="http://www.w3.org/2000/svg">
<path d="M2 3h1v1h-1z" fill="#585858"/>
<path d="M3 3h1v1h-1z" fill="#585858"/>
<path d="M4 3h1v1h-1z" fill="#585858"/>
<path d="M5 3h1v1h-1z" fill="#585858"/>
<path d="M6 3h1v1h-1z" fill="#585858"/>
<path d="M7 3h1v1h-1z" fill="#585858"/>
<path d="M8 3h1v1h-1z" fill="#585858"/>
<path d="M9 3h1v1h-1z" fill="#585858"/>
<path d="M10 3h1v1h-1z" fill="#585858"/>
<path d="M11 3h1v1h-1z" fill="#585858"/>
<path d="M12 3h1v1h-1z" fill="#585858"/>
<path d="M13 3h1v1h-1z" fill="#585858"/>
<path d="M2 4h1v1h-1z" fill="#585858"/>
<path d="M13 4h1v1h-1z" fill="#585858"/>
<path d="M2 5h1v1h-1z" fill="#585858"/>
<path d="M13 5h1v1h-1z" fill="#585858"/>
<path d="M2 6h1v1h-1z" fill="#585858"/>
<path d="M3 6h1v1h-1z" fill="#ffffff"/>
<path d="M4 6h1v1h-1z" fill="#ffffff"/>
<path d="M5 6h1v1h-1z" fill="#ffffff"/>
<path d="M6 6h1v1h-1z" fill="#ffffff"/>
<path d="M7 6h1v1h-1z" fill="#ffffff"/>
<path d="M8 6h1v1h-1z" fill="#ffffff"/>
<path d="M9 6h1v1h-1z" fill="#ffffff"/>
<path d="M10 6h1v1h-1z" fill="#ffffff"/>
<path d="M11 6h1v1h-1z" fill="#ffffff"/>
<path d="M12 6h1v1h-1z" fill="#ffffff"/>
<path d="M13 6h1v1h-1z" fill="#585858"/>
<path d="M2 7h1v1h-1z" fill="#585858"/>
<path d="M13 7h1v1h-1z" fill="#585858"/>
<path d="M2 8h1v1h-1z" fill="#585858"/>
<path d="M3 8h1v1h-1z" fill="#ffffff"/>
<path d="M4 8h1v1h-1z" fill="#ffffff"/>
<path d="M5 8h1v1h-1z" fill="#ffffff"/>
<path d="M6 8h1v1h-1z" fill="#ffffff"/>
<path d="M7 8h1v1h-1z" fill="#ffffff"/>
<path d="M8 8h1v1h-1z" fill="#ffffff"/>
<path d="M9 8h1v1h-1z" fill="#ffffff"/>
<path d="M13 8h1v1h-1z" fill="#585858"/>
<path d="M2 9h1v1h-1z" fill="#585858"/>
<path d="M13 9h1v1h-1z" fill="#585858"/>
<path d="M2 10h1v1h-1z" fill="#585858"/>
<path d="M13 10h1v1h-1z" fill="#585858"/>
<path d="M2 11h1v1h-1z" fill="#585858"/>
<path d="M3 11h1v1h-1z" fill="#585858"/>
<path d="M4 11h1v1h-1z" fill="#585858"/>
<path d="M5 11h1v1h-1z" fill="#585858"/>
<path d="M6 11h1v1h-1z" fill="#585858"/>
<path d="M7 11h1v1h-1z" fill="#585858"/>
<path d="M8 11h1v1h-1z" fill="#585858"/>
<path d="M9 11h1v1h-1z" fill="#585858"/>
<path d="M10 11h1v1h-1z" fill="#585858"/>
<path d="M11 11h1v1h-1z" fill="#585858"/>
<path d="M12 11h1v1h-1z" fill="#585858"/>
<path d="M13 11h1v1h-1z" fill="#585858"/>
<path d="M5 12h1v1h-1z" fill="#585858"/>
<path d="M6 12h1v1h-1z" fill="#585858"/>
<path d="M5 13h1v1h-1z" fill="#585858"/>
<path d="M6 13h1v1h-1z" fill="#585858"/>
</svg>